TITLE ""
FILE "DISC1Track06.mp3" MP3
  TRACK 01 AUDIO
    TITLE "DISC1Track06_01"
    INDEX 01 00:00:00
  TRACK 02 AUDIO
    TITLE "DISC1Track06_02"
    INDEX 01 00:03:44
  TRACK 03 AUDIO
    TITLE "DISC1Track06_03"
    INDEX 01 00:03:73
  TRACK 04 AUDIO
    TITLE "DISC1Track06_04"
    INDEX 01 00:05:62
  TRACK 05 AUDIO
    TITLE "DISC1Track06_05"
    INDEX 01 00:07:65
  TRACK 06 AUDIO
    TITLE "DISC1Track06_06"
    INDEX 01 00:09:60
  TRACK 07 AUDIO
    TITLE "DISC1Track06_07"
    INDEX 01 00:10:17
  TRACK 08 AUDIO
    TITLE "DISC1Track06_08"
    INDEX 01 00:13:07
  TRACK 09 AUDIO
    TITLE "DISC1Track06_09"
    INDEX 01 00:15:29
  TRACK 10 AUDIO
    TITLE "DISC1Track06_10"
    INDEX 01 00:17:46
  TRACK 11 AUDIO
    TITLE "DISC1Track06_11"
    INDEX 01 00:17:75
  TRACK 12 AUDIO
    TITLE "DISC1Track06_12"
    INDEX 01 00:19:63
  TRACK 13 AUDIO
    TITLE "DISC1Track06_13"
    INDEX 01 00:21:58
  TRACK 14 AUDIO
    TITLE "DISC1Track06_14"
    INDEX 01 00:23:43
  TRACK 15 AUDIO
    TITLE "DISC1Track06_15"
    INDEX 01 00:23:70
  TRACK 16 AUDIO
    TITLE "DISC1Track06_16"
    INDEX 01 00:26:39
  TRACK 17 AUDIO
    TITLE "DISC1Track06_17"
    INDEX 01 00:28:58
  TRACK 18 AUDIO
    TITLE "DISC1Track06_18"
    INDEX 01 00:30:56
  TRACK 19 AUDIO
    TITLE "DISC1Track06_19"
    INDEX 01 00:31:13
  TRACK 20 AUDIO
    TITLE "DISC1Track06_20"
    INDEX 01 00:33:02
  TRACK 21 AUDIO
    TITLE "DISC1Track06_21"
    INDEX 01 00:34:68
  TRACK 22 AUDIO
    TITLE "DISC1Track06_22"
    INDEX 01 00:36:43
  TRACK 23 AUDIO
    TITLE "DISC1Track06_23"
    INDEX 01 00:37:02
  TRACK 24 AUDIO
    TITLE "DISC1Track06_24"
    INDEX 01 00:39:40
  TRACK 25 AUDIO
    TITLE "DISC1Track06_25"
    INDEX 01 00:41:62
  TRACK 26 AUDIO
    TITLE "DISC1Track06_26"
    INDEX 01 00:43:71
  TRACK 27 AUDIO
    TITLE "DISC1Track06_27"
    INDEX 01 00:44:25
  TRACK 28 AUDIO
    TITLE "DISC1Track06_28"
    INDEX 01 00:46:03
  TRACK 29 AUDIO
    TITLE "DISC1Track06_29"
    INDEX 01 00:48:05
  TRACK 30 AUDIO
    TITLE "DISC1Track06_30"
    INDEX 01 00:50:04
  TRACK 31 AUDIO
    TITLE "DISC1Track06_31"
    INDEX 01 00:50:30
  TRACK 32 AUDIO
    TITLE "DISC1Track06_32"
    INDEX 01 00:53:05
  TRACK 33 AUDIO
    TITLE "DISC1Track06_33"
    INDEX 01 00:55:74
  TRACK 34 AUDIO
    TITLE "DISC1Track06_34"
    INDEX 01 00:58:51
  TRACK 35 AUDIO
    TITLE "DISC1Track06_35"
    INDEX 01 00:59:09
  TRACK 36 AUDIO
    TITLE "DISC1Track06_36"
    INDEX 01 01:00:71
  TRACK 37 AUDIO
    TITLE "DISC1Track06_37"
    INDEX 01 01:03:15
  TRACK 38 AUDIO
    TITLE "DISC1Track06_38"
    INDEX 01 01:05:22
  TRACK 39 AUDIO
    TITLE "DISC1Track06_39"
    INDEX 01 01:05:51
  TRACK 40 AUDIO
    TITLE "DISC1Track06_40"
    INDEX 01 01:07:38
  TRACK 41 AUDIO
    TITLE "DISC1Track06_41"
    INDEX 01 01:09:49
  TRACK 42 AUDIO
    TITLE "DISC1Track06_42"
    INDEX 01 01:11:52
